# xmcd
#
# Track frame offsets:
#	183
#	10875
#	21275
#	34503
#	45008
#	57525
#	69555
#	80113
#	90788
#	103593
#	114458
#	124875
#	136730
#	149568
#	163745
#	177265
#
# Disc length: 2550 seconds
# Revision: 8
# Processed by: cddbd v1.5.2PL0 Copyright (c) Steve Scherf et al.
# Submitted via: dBpowerAMP V12.0
#
DISCID=d009f410
DTITLE=Various Artist - The Chess Story Volume Two
DYEAR=1956
DGENRE=Blues
TTITLE0=Clarence "Frogman" Henry - Ain't Got No Home
TTITLE1=Dale Hawkins - Susie Q
TTITLE2=Lee Andrews and The Hearts - Long Lonely Nights
TTITLE3=The Tune Weavers - Happy Happy Birthday Baby
TTITLE4=Jimmy McCracklin - The Walk
TTITLE5=Jimmy McCracklin - Johnny B Goode
TTITLE6=The Monotones - Book Of Love
TTITLE7=Buddy Guy - First Time I Met The Blues
TTITLE8=Elmore James - The Sun Is Shining
TTITLE9=Howlin' Wolf - Wang Dang Doodle
TTITLE10=Clarence "Frogman" Henry - But I Do
TTITLE11=The Vibrations - The Watusi
TTITLE12=Betty James - I'm A Little Mixed Up
TTITLE13=The Sensations - Let Me In
TTITLE14=The Corsairs - Smokey Places
TTITLE15=Big Maybelle - You Can't Judge A Book By Its Cover
EXTD=
EXTT0=
EXTT1=
EXTT2=
EXTT3=
EXTT4=
EXTT5=
EXTT6=
EXTT7=
EXTT8=
EXTT9=
EXTT10=
EXTT11=
EXTT12=
EXTT13=
EXTT14=
EXTT15=
PLAYORDER=
